<svg width="32" height="32" viewBox="0 0 32 32" fill="none" xmlns="http://www.w3.org/2000/svg">
<g clip-path="url(#clip0_9698_1833)">
<mask id="mask0_9698_1833" style="mask-type:luminance" maskUnits="userSpaceOnUse" x="0" y="0" width="32" height="32">
<path d="M32 0H0V32H32V0Z" fill="white"/>
</mask>
<g mask="url(#mask0_9698_1833)">
<mask id="mask1_9698_1833" style="mask-type:luminance" maskUnits="userSpaceOnUse" x="0" y="0" width="32" height="32">
<path d="M30 0H2C0.89543 0 0 0.89543 0 2V30C0 31.1046 0.89543 32 2 32H30C31.1046 32 32 31.1046 32 30V2C32 0.89543 31.1046 0 30 0Z" fill="white"/>
</mask>
<g mask="url(#mask1_9698_1833)">
<path d="M30.7351 1.47852L6.17212 30.5186H1.33203L25.6531 1.47852H30.7351Z" fill="white"/>
<path d="M32.0651 30.5186H22.2641L0 1.47852H10.0429L32.0651 30.5186ZM23.595 27.8565H26.741L8.71199 4.14053H5.44498L23.595 27.8565Z" fill="white"/>
</g>
</g>
</g>
<defs>
<clipPath id="clip0_9698_1833">
<rect width="32" height="32" fill="white"/>
</clipPath>
</defs>
</svg>
